<?xml version="1.0" encoding="UTF-8"?>
<svg id="Layer_1" xmlns="http://www.w3.org/2000/svg" version="1.1" viewBox="0 0 40.08 64.87">
  <!-- Generator: Adobe Illustrator 30.5.1, SVG Export Plug-In . SVG Version: 2.1.4 Build 3)  -->
  <defs>
    <style>
      .st0 {
        fill: #358ac4;
      }

      .st1 {
        fill: #3aa3dd;
      }
    </style>
  </defs>
  <rect class="st0" x="8.14" y="9.02" width="23.8" height="46.82" rx="11.9" ry="11.9" transform="translate(57.14 41.19) rotate(135)"/>
  <path class="st0" d="M33.31,45.76h1.34c.68,0,1.23.55,1.23,1.23h0c0,.68-.55,1.23-1.23,1.23h-1.34v-2.46h0Z" transform="translate(25.84 104.68) rotate(-135)"/>
  <path class="st0" d="M4.19,16.64h1.34c.68,0,1.23.55,1.23,1.23h0c0,.68-.55,1.23-1.23,1.23h-1.34v-2.46h0Z" transform="translate(14.24 1.36) rotate(45)"/>
  <path class="st0" d="M25.75,9.4c-1.06-1.34-2.31-2.5-3.7-3.4-1.4-.89-2.92-1.55-4.5-1.88-1.58-.34-3.21-.36-4.76-.05-1.55.29-3.01.92-4.24,1.83-.61.45-1.18.99-1.65,1.55-.47.56-.83,1.16-1.06,1.79-.24.63-.35,1.28-.37,1.97,0,.69.1,1.41.31,2.13.2.72.5,1.45.88,2.15.19.35.39.7.6,1.04.11.17.22.33.34.49l.17.24.14.19.1.13c.67.9.49,2.17-.4,2.84-.85.64-2.04.51-2.74-.28l-.16-.19-.14-.16c-.09-.11-.17-.21-.25-.32-.16-.21-.32-.43-.47-.64-.3-.43-.59-.88-.84-1.34-.52-.92-.96-1.91-1.28-2.97-.31-1.06-.5-2.19-.49-3.36,0-.58.06-1.18.17-1.76.11-.58.29-1.16.51-1.71.44-1.1,1.07-2.1,1.81-2.95.73-.85,1.55-1.57,2.45-2.2C7.95,1.29,10.01.5,12.12.17c4.24-.64,8.58.58,11.86,3.06,1.65,1.23,3.06,2.73,4.2,4.38.71,1.01,1.31,2.09,1.8,3.2.15.34.52.52.88.43l1.44-.35c1.15-.28,2.17.78,1.84,1.92l-1.9,6.56c-.33,1.13-1.76,1.49-2.58.64l-4.73-4.93c-.82-.85-.41-2.27.74-2.55l.84-.21c.51-.12.75-.71.47-1.15-.39-.61-.8-1.2-1.24-1.76Z"/>
  <path class="st0" d="M35.21,44.74l.16.18.14.16c.09.11.17.21.25.32.16.21.32.43.47.64.3.43.59.87.84,1.34.52.92.96,1.91,1.28,2.97.31,1.06.5,2.19.49,3.36,0,.58-.06,1.18-.17,1.76-.11.58-.29,1.16-.5,1.71-.44,1.1-1.07,2.1-1.81,2.95-.74.85-1.55,1.58-2.45,2.2-1.79,1.25-3.86,2.04-5.97,2.37-4.24.64-8.58-.58-11.86-3.06-1.65-1.23-3.06-2.73-4.2-4.38-.71-1.01-1.31-2.09-1.81-3.2-.15-.34-.52-.52-.88-.43l-1.44.35c-1.15.28-2.17-.78-1.84-1.92l1.9-6.56c.33-1.13,1.76-1.49,2.58-.64l4.73,4.93c.82.85.41,2.27-.74,2.55l-.85.21c-.5.12-.75.71-.47,1.15.38.61.79,1.2,1.24,1.76,1.06,1.34,2.31,2.5,3.71,3.4,1.39.9,2.92,1.55,4.5,1.89,1.58.34,3.21.36,4.76.05,1.55-.29,3.01-.92,4.24-1.83.61-.45,1.18-.99,1.65-1.55.47-.56.83-1.16,1.06-1.79s.35-1.28.37-1.97c0-.69-.1-1.41-.31-2.13-.2-.72-.51-1.45-.88-2.15-.19-.35-.39-.7-.6-1.04-.11-.17-.22-.34-.34-.5l-.17-.23-.14-.19-.1-.14c-.67-.89-.49-2.16.4-2.84.85-.64,2.05-.5,2.74.28Z"/>
  <rect class="st1" x="11.98" y="13.63" width="16.12" height="37.61" rx="8.06" ry="8.06" transform="translate(57.15 41.2) rotate(135)"/>
  <path class="st0" d="M10.75,36.81h4.07c1.06,0,1.92.86,1.92,1.92h0c0,1.06-.86,1.92-1.92,1.92h-4.07v-3.84h0Z" transform="translate(-23.36 21.06) rotate(-45)"/>
  <path class="st0" d="M23.34,24.22h4.07c1.06,0,1.92.86,1.92,1.92h0c0,1.06-.86,1.92-1.92,1.92h-4.07v-3.84h0Z" transform="translate(63.44 26) rotate(135)"/>
  <path class="st0" d="M4.83,17.53h2.54c1.06,0,1.92.86,1.92,1.92h0c0,1.06-.86,1.92-1.92,1.92h-2.54v-3.84h0Z" transform="translate(15.82 .71) rotate(45)"/>
  <path class="st0" d="M30.6,43.95h3.83c1.06,0,1.92.86,1.92,1.92h0c0,1.06-.86,1.92-1.92,1.92h-3.83v-3.84h0Z" transform="translate(24.71 101.97) rotate(-135)"/>
</svg>