<?xml version="1.0" encoding="UTF-8"?>
<svg id="Layer_1" xmlns="http://www.w3.org/2000/svg" version="1.1" viewBox="0 0 229.03 64.87">
  <!-- Generator: Adobe Illustrator 30.5.1, SVG Export Plug-In . SVG Version: 2.1.4 Build 3)  -->
  <defs>
    <style>
      .st0 {
        fill: #358ac4;
      }

      .st1 {
        fill: #3aa3dd;
      }
    </style>
  </defs>
  <g>
    <rect class="st0" x="8.14" y="9.02" width="23.8" height="46.82" rx="11.9" ry="11.9" transform="translate(57.14 41.19) rotate(135)"/>
    <path class="st0" d="M33.31,45.76h1.34c.68,0,1.23.55,1.23,1.23h0c0,.68-.55,1.23-1.23,1.23h-1.34v-2.46h0Z" transform="translate(25.84 104.68) rotate(-135)"/>
    <path class="st0" d="M4.19,16.64h1.34c.68,0,1.23.55,1.23,1.23h0c0,.68-.55,1.23-1.23,1.23h-1.34v-2.46h0Z" transform="translate(14.24 1.36) rotate(45)"/>
    <path class="st0" d="M25.75,9.4c-1.06-1.34-2.31-2.5-3.7-3.4-1.4-.89-2.92-1.55-4.5-1.88-1.58-.34-3.21-.36-4.76-.05-1.55.29-3.01.92-4.24,1.83-.61.45-1.18.99-1.65,1.55-.47.56-.83,1.16-1.06,1.79-.24.63-.35,1.28-.37,1.97,0,.69.1,1.41.31,2.13.2.72.5,1.45.88,2.15.19.35.39.7.6,1.04.11.17.22.33.34.49l.17.24.14.19.1.13c.67.9.49,2.17-.4,2.84-.85.64-2.04.51-2.74-.28l-.16-.19-.14-.16c-.09-.11-.17-.21-.25-.32-.16-.21-.32-.43-.47-.64-.3-.43-.59-.88-.84-1.34-.52-.92-.96-1.91-1.28-2.97-.31-1.06-.5-2.19-.49-3.36,0-.58.06-1.18.17-1.76.11-.58.29-1.16.51-1.71.44-1.1,1.07-2.1,1.81-2.95.73-.85,1.55-1.57,2.45-2.2C7.95,1.29,10.01.5,12.12.17c4.24-.64,8.58.58,11.86,3.06,1.65,1.23,3.06,2.73,4.2,4.38.71,1.01,1.31,2.09,1.8,3.2.15.34.52.52.88.43l1.44-.35c1.15-.28,2.17.78,1.84,1.92l-1.9,6.56c-.33,1.13-1.76,1.49-2.58.64l-4.73-4.93c-.82-.85-.41-2.27.74-2.55l.84-.21c.51-.12.75-.71.47-1.15-.39-.61-.8-1.2-1.24-1.76Z"/>
    <path class="st0" d="M35.21,44.74l.16.18.14.16c.09.11.17.21.25.32.16.21.32.43.47.64.3.43.59.87.84,1.34.52.92.96,1.91,1.28,2.97.31,1.06.5,2.19.49,3.36,0,.58-.06,1.18-.17,1.76-.11.58-.29,1.16-.5,1.71-.44,1.1-1.07,2.1-1.81,2.95-.74.85-1.55,1.58-2.45,2.2-1.79,1.25-3.86,2.04-5.97,2.37-4.24.64-8.58-.58-11.86-3.06-1.65-1.23-3.06-2.73-4.2-4.38-.71-1.01-1.31-2.09-1.81-3.2-.15-.34-.52-.52-.88-.43l-1.44.35c-1.15.28-2.17-.78-1.84-1.92l1.9-6.56c.33-1.13,1.76-1.49,2.58-.64l4.73,4.93c.82.85.41,2.27-.74,2.55l-.85.21c-.5.12-.75.71-.47,1.15.38.61.79,1.2,1.24,1.76,1.06,1.34,2.31,2.5,3.71,3.4,1.39.9,2.92,1.55,4.5,1.89,1.58.34,3.21.36,4.76.05,1.55-.29,3.01-.92,4.24-1.83.61-.45,1.18-.99,1.65-1.55.47-.56.83-1.16,1.06-1.79s.35-1.28.37-1.97c0-.69-.1-1.41-.31-2.13-.2-.72-.51-1.45-.88-2.15-.19-.35-.39-.7-.6-1.04-.11-.17-.22-.34-.34-.5l-.17-.23-.14-.19-.1-.14c-.67-.89-.49-2.16.4-2.84.85-.64,2.05-.5,2.74.28Z"/>
    <rect class="st1" x="11.98" y="13.63" width="16.12" height="37.61" rx="8.06" ry="8.06" transform="translate(57.15 41.2) rotate(135)"/>
    <path class="st0" d="M10.75,36.81h4.07c1.06,0,1.92.86,1.92,1.92h0c0,1.06-.86,1.92-1.92,1.92h-4.07v-3.84h0Z" transform="translate(-23.36 21.06) rotate(-45)"/>
    <path class="st0" d="M23.34,24.22h4.07c1.06,0,1.92.86,1.92,1.92h0c0,1.06-.86,1.92-1.92,1.92h-4.07v-3.84h0Z" transform="translate(63.44 26) rotate(135)"/>
    <path class="st0" d="M4.83,17.53h2.54c1.06,0,1.92.86,1.92,1.92h0c0,1.06-.86,1.92-1.92,1.92h-2.54v-3.84h0Z" transform="translate(15.82 .71) rotate(45)"/>
    <path class="st0" d="M30.6,43.95h3.83c1.06,0,1.92.86,1.92,1.92h0c0,1.06-.86,1.92-1.92,1.92h-3.83v-3.84h0Z" transform="translate(24.71 101.97) rotate(-135)"/>
  </g>
  <g>
    <path class="st0" d="M62.77,48.21h-6.47v-31.16h6.78l7.57,17.91,7.66-17.91h6.78v31.16h-6.47v-12.41l.79-6.03h-.48l-1.5,4.36-4.27,9.99h-4.84l-4.31-10.03-1.5-4.27h-.44l.7,6.03v12.37Z"/>
    <path class="st0" d="M89.57,33.12c0-5.37,4.58-8.14,9.15-8.14s9.11,2.77,9.11,8.14v7.44c0,5.46-4.58,8.1-9.11,8.1s-9.15-2.64-9.15-8.1v-7.44ZM95.68,32.72v7.97c0,1.45,1.58,2.46,3.04,2.46s2.99-1.01,2.99-2.46v-7.97c0-1.45-1.58-2.24-2.99-2.24s-3.04.79-3.04,2.24Z"/>
    <path class="st0" d="M130.19,32.72v8.05c-.48,5.9-4.66,7.88-9.46,7.88-2.86,0-6.07-.66-8.89-1.72v-29.84h6.16v8.67c1.19-.53,2.42-.79,3.78-.79,4.18,0,8.41,2.99,8.41,7.75ZM121.82,43.9c1.23-.35,2.24-1.19,2.24-2.55v-8.93c-.18-1.28-1.19-2.07-2.42-2.42-.4-.09-.84-.13-1.23-.13-.22,0-.44,0-.66.04-.66.09-1.28.26-1.76.53v13.2c.53.26,1.14.4,1.85.44.13.04.26.04.4.04.57,0,1.1-.09,1.58-.22Z"/>
    <path class="st0" d="M141.05,20c0,2.16-1.67,3.83-3.78,3.83s-3.74-1.67-3.74-3.83,1.63-3.78,3.74-3.78,3.78,1.67,3.78,3.78ZM140.44,48.21h-6.25v-22.75h6.25v22.75Z"/>
    <path class="st0" d="M144.97,40.2v-23.15h6.12v23.15c0,1.72,1.14,3.12,3.65,3.12v5.24c-.48.04-.88.09-1.28.09-5.85,0-8.49-3.74-8.49-8.45Z"/>
    <path class="st0" d="M163.81,48.56c-3.92-.26-6.51-3.04-6.51-8.36v-19.85h5.63l.44,5.06h4.05v5.59h-4.05v9.15c0,1.32.35,2.2,1.1,2.6.44.22,1.01.35,1.72.35.53,0,1.14-.09,1.89-.22v5.02c-1.32.44-2.55.66-3.74.66h-.53Z"/>
    <path class="st0" d="M178.37,34c1.36,0,2.68.22,4.05.7v-1.63c0-2.42-1.63-3.17-3.52-3.17-1.72,0-3.7.92-4.8,2.11l-2.99-3.21c2.33-2.68,5.06-3.78,8.23-3.83,4.53,0,8.98,2.6,8.98,8.1v13.91c-2.68,1.01-5.76,1.67-8.58,1.67-6.47,0-9.46-2.82-9.46-7.22,0-5.28,3.96-7.44,8.1-7.44ZM176.08,41.26c0,1.63,1.1,2.68,3.56,2.68.92,0,1.8-.09,2.6-.31v-4.62c-.7-.31-1.76-.53-2.77-.53-2.33,0-3.39,1.14-3.39,2.77Z"/>
    <path class="st0" d="M204.69,25.42v4.93c-.57-.13-1.14-.22-1.72-.22h-.31c-2.07.09-4,1.1-4,3.04v15.05h-6.12v-15.14c0-5.46,4.8-8.1,8.93-8.1.84,0,1.94.13,3.21.44Z"/>
    <path class="st0" d="M214.46,20c0,2.16-1.67,3.83-3.78,3.83s-3.74-1.67-3.74-3.83,1.63-3.78,3.74-3.78,3.78,1.67,3.78,3.78ZM213.84,48.21h-6.25v-22.75h6.25v22.75Z"/>
    <path class="st0" d="M225.81,23.13c-.75.57-1.1,1.32-1.1,2.24v1.1h4.05v5.59h-4.05v16.15h-6.12v-23.19c0-4.05,2.33-6.91,6.16-7.79.84-.22,1.76-.35,2.77-.35.48,0,1.01.04,1.5.09v5.72c-.44-.09-.84-.13-1.23-.13-.79,0-1.45.18-1.98.57Z"/>
  </g>
</svg>